<svg xmlns="http://www.w3.org/2000/svg" width="20" height="20" viewBox="0 0 20 20" fill="none">
  <path d="M17.9167 7.50033V15.8337M4.58333 7.50033V15.8337M2.08333 7.50033V15.8337M15.4167 7.50033V15.8337M1.66667 17.5003H18.3333M0 19.5837H20M10 9.16699H9.16667C8.94565 9.16699 8.73369 9.25479 8.57741 9.41107C8.42113 9.56735 8.33333 9.77931 8.33333 10.0003V10.3128C8.33333 10.4931 8.39181 10.6686 8.5 10.8128C8.60818 10.9571 8.76024 11.0623 8.93333 11.1128L11.0667 11.7353C11.2398 11.7858 11.3918 11.8911 11.5 12.0353C11.6082 12.1796 11.6667 12.355 11.6667 12.5353V13.3337C11.6667 13.5547 11.5789 13.7666 11.4226 13.9229C11.2663 14.0792 11.0543 14.167 10.8333 14.167H10M10 9.16699H10.8333C11.0543 9.16699 11.2663 9.25479 11.4226 9.41107C11.5789 9.56735 11.6667 9.77931 11.6667 10.0003V10.417M10 9.16699V7.50033M10 14.167H9.16667C8.94565 14.167 8.73369 14.0792 8.57741 13.9229C8.42113 13.7666 8.33333 13.5547 8.33333 13.3337V12.917M10 14.167V15.8337M19.5833 5.20866V5.83366H0.416667V5.20866C4.58333 3.75033 7.08333 2.50033 9.79167 0.416992H10.2083C12.9167 2.50033 15.4167 3.75033 19.5833 5.20866Z" stroke="#FFCA19" stroke-width="0.833333"/>
</svg>
