<svg xmlns="http://www.w3.org/2000/svg" width="20" height="20" viewBox="0 0 20 20" fill="none">
  <path
    d="M11.6663 6.66634H3.88856C3.74122 6.66634 3.59991 6.60781 3.49573 6.50362C3.39154 6.39944 3.33301 6.25813 3.33301 6.11079V3.88856C3.33301 3.74122 3.39154 3.59991 3.49573 3.49573C3.59991 3.39154 3.74122 3.33301 3.88856 3.33301H11.6663C11.8137 3.33301 11.955 3.39154 12.0592 3.49573C12.1634 3.59991 12.2219 3.74122 12.2219 3.88856V6.11079C12.2219 6.25813 12.1634 6.39944 12.0592 6.50362C11.955 6.60781 11.8137 6.66634 11.6663 6.66634ZM4.44412 5.55523H11.1108V4.41079H4.44412V5.55523Z"
    fill="#FFCA19" />
  <path
    d="M11.6663 7.82227H3.88856C3.74122 7.82227 3.59991 7.8808 3.49573 7.98498C3.39154 8.08917 3.33301 8.23048 3.33301 8.37782V10.5556C3.33301 10.7029 3.39154 10.8442 3.49573 10.9484C3.59991 11.0526 3.74122 11.1112 3.88856 11.1112H10.1997L12.2219 9.0556V8.37782C12.2219 8.23048 12.1634 8.08917 12.0592 7.98498C11.955 7.8808 11.8137 7.82227 11.6663 7.82227ZM11.1108 10H4.44412V8.88893H11.1108V10Z"
    fill="#FFCA19" />
  <path
    d="M6.14466 17.5058V17.4724L6.32244 16.7002H2.22244V2.22244H13.3336V7.91688L14.4447 6.86688V1.66688C14.4447 1.51954 14.3861 1.37823 14.2819 1.27405C14.1778 1.16986 14.0364 1.11133 13.8891 1.11133H1.66688C1.51954 1.11133 1.37823 1.16986 1.27405 1.27405C1.16986 1.37823 1.11133 1.51954 1.11133 1.66688V17.2224C1.11133 17.3698 1.16986 17.5111 1.27405 17.6153C1.37823 17.7195 1.51954 17.778 1.66688 17.778H6.11133C6.11583 17.6866 6.12697 17.5956 6.14466 17.5058Z"
    fill="#FFCA19" />
  <path
    d="M12.2224 10.6504L11.7891 11.0893C11.8966 11.0671 11.9951 11.0136 12.0722 10.9355C12.1494 10.8574 12.2016 10.7582 12.2224 10.6504Z"
    fill="#FFCA19" />
  <path
    d="M3.33301 14.9671C3.33301 15.1144 3.39154 15.2558 3.49573 15.3599C3.59991 15.4641 3.74122 15.5227 3.88856 15.5227H6.57745L6.74412 14.8004L6.81634 14.4949V14.4671H4.44412V13.3338H7.96634L9.07745 12.2227H3.88856C3.74122 12.2227 3.59991 12.2812 3.49573 12.3854C3.39154 12.4896 3.33301 12.6309 3.33301 12.7782V14.9671Z"
    fill="#FFCA19" />
  <path
    d="M18.6055 9.26104L16.7332 7.38882C16.6502 7.3055 16.5514 7.2394 16.4428 7.1943C16.3341 7.14919 16.2176 7.12598 16.0999 7.12598C15.9822 7.12598 15.8657 7.14919 15.7571 7.1943C15.6484 7.2394 15.5497 7.3055 15.4666 7.38882L7.84991 15.0499L7.22213 17.7222C7.19863 17.8374 7.1981 17.9562 7.22058 18.0717C7.24305 18.1872 7.28809 18.2971 7.35312 18.3952C7.41814 18.4932 7.50187 18.5775 7.59951 18.6431C7.69716 18.7088 7.80679 18.7545 7.92213 18.7777C7.9794 18.7833 8.03708 18.7833 8.09435 18.7777C8.16246 18.7883 8.2318 18.7883 8.29991 18.7777L10.9944 18.1833L18.6055 10.5555C18.6886 10.4729 18.7546 10.3746 18.7996 10.2664C18.8447 10.1582 18.8678 10.0421 18.8678 9.92493C18.8678 9.80772 18.8447 9.69167 18.7996 9.58345C18.7546 9.47523 18.6886 9.37699 18.6055 9.29438V9.26104ZM10.4277 17.1722L8.39435 17.6222L8.8888 15.6055L14.5999 9.83327L16.1666 11.3999L10.4277 17.1722ZM16.7944 10.7722L15.2277 9.20549L16.111 8.33326L17.6888 9.91104L16.7944 10.7722Z"
    fill="#FFCA19" />
</svg>
