<svg xmlns="http://www.w3.org/2000/svg" width="20" height="20" viewBox="0 0 20 20" fill="none">
  <path fill-rule="evenodd" clip-rule="evenodd"
    d="M6.23058 6.92917C8.23724 7.70417 10.6485 7.70417 12.6547 6.92833C13.5283 7.85018 14.2528 8.9027 14.8018 10.0479C15.1652 10.1037 15.5131 10.2062 15.8393 10.3492C15.2447 8.83083 14.2389 7.355 13.1577 6.25L14.6968 4C14.4451 3.83607 14.1825 3.68935 13.911 3.56083C12.8943 3.06708 11.2614 2.5 9.46308 2.5C7.62724 2.5 5.95016 3.09167 4.92724 3.59208C4.82558 3.64208 4.73058 3.69069 4.64224 3.73792C4.46433 3.83375 4.31433 3.92292 4.19683 4L5.72516 6.25C2.14599 10.0158 -0.520673 17.4988 9.46308 17.4988C10.1465 17.5024 10.8294 17.4607 11.5072 17.3737C11.2384 17.151 10.9986 16.8954 10.7935 16.6129C10.3846 16.6474 9.94113 16.6649 9.46308 16.6654C7.05266 16.6654 5.54099 16.2108 4.63808 15.5858C3.77349 14.9871 3.39391 14.1817 3.34016 13.2392C3.28433 12.26 3.58391 11.1171 4.14516 9.96C4.68058 8.85667 5.42808 7.79458 6.23058 6.92917ZM12.1685 6.22L13.401 4.41875C12.2552 4.50125 10.8914 4.77042 9.57891 5.15042C8.64141 5.42125 7.60016 5.38 6.63516 5.20208C6.39208 5.15708 6.15068 5.10343 5.91141 5.04125L6.71141 6.21917C8.42641 6.82958 10.4539 6.82958 12.1685 6.22ZM5.75183 4.13167C6.08516 4.23083 6.43308 4.31708 6.78641 4.3825C7.68224 4.5475 8.58099 4.57167 9.34724 4.34958C10.2406 4.08921 11.1493 3.88451 12.0681 3.73667C11.3014 3.50583 10.4052 3.33333 9.46266 3.33333C8.02724 3.33333 6.68891 3.73375 5.75183 4.13167Z"
    fill="#FFCA19" />
  <path fill-rule="evenodd" clip-rule="evenodd"
    d="M9.44629 11.6667C9.87171 11.6667 10.26 11.8263 10.5546 12.0888C10.3992 12.3588 10.2745 12.6455 10.183 12.9433C10.1121 12.8095 10.006 12.6974 9.87621 12.6193C9.74641 12.5412 9.59778 12.5 9.44629 12.5V14.1667C9.66171 14.1667 9.85796 14.085 10.0059 13.9508C9.98953 14.2625 10.0083 14.575 10.0617 14.8825C9.86584 14.9602 9.65701 15.0001 9.44629 15V15.4167H8.61296V15C8.26823 15.0001 7.93196 14.8932 7.65049 14.6942C7.36901 14.4952 7.15617 14.2138 7.04129 13.8888C7.00449 13.7845 7.0106 13.67 7.05826 13.5703C7.10593 13.4706 7.19125 13.3939 7.29546 13.3571C7.39966 13.3203 7.51422 13.3264 7.61393 13.3741C7.71364 13.4217 7.79032 13.507 7.82712 13.6112C7.8846 13.7737 7.99103 13.9144 8.13177 14.0138C8.2725 14.1133 8.44062 14.1667 8.61296 14.1667V12.5C8.17093 12.5 7.74701 12.3244 7.43444 12.0118C7.12188 11.6993 6.94629 11.2754 6.94629 10.8333C6.94629 10.3913 7.12188 9.96738 7.43444 9.65482C7.74701 9.34226 8.17093 9.16667 8.61296 9.16667V8.75H9.44629V9.16667C9.79102 9.16661 10.1273 9.27345 10.4088 9.47247C10.6902 9.67149 10.9031 9.95289 11.018 10.2779C11.0362 10.3295 11.0441 10.3842 11.0411 10.4388C11.0382 10.4935 11.0246 10.547 11.001 10.5964C10.9774 10.6458 10.9443 10.69 10.9036 10.7266C10.8629 10.7632 10.8154 10.7914 10.7638 10.8096C10.7122 10.8278 10.6575 10.8357 10.6029 10.8328C10.5482 10.8299 10.4947 10.8162 10.4453 10.7926C10.3959 10.769 10.3517 10.7359 10.3151 10.6952C10.2785 10.6545 10.2503 10.607 10.2321 10.5554C10.1746 10.3929 10.0682 10.2523 9.92748 10.1528C9.78674 10.0533 9.61863 9.99996 9.44629 10V11.6667ZM8.61296 10C8.39194 10 8.17998 10.0878 8.0237 10.2441C7.86742 10.4004 7.77962 10.6123 7.77962 10.8333C7.77962 11.0543 7.86742 11.2663 8.0237 11.4226C8.17998 11.5789 8.39194 11.6667 8.61296 11.6667V10Z"
    fill="#FFCA19" />
  <path
    d="M14.5832 14.3417L15.0791 13.8971L15.6353 14.5179L14.1666 15.8337L12.6982 14.5171L13.2545 13.8967L13.7499 14.3412V12.5H14.5832V14.3417Z"
    fill="#FFCA19" />
  <path fill-rule="evenodd" clip-rule="evenodd"
    d="M14.1663 17.4997C15.0504 17.4997 15.8982 17.1485 16.5234 16.5234C17.1485 15.8982 17.4997 15.0504 17.4997 14.1663C17.4997 13.2823 17.1485 12.4344 16.5234 11.8093C15.8982 11.1842 15.0504 10.833 14.1663 10.833C13.2823 10.833 12.4344 11.1842 11.8093 11.8093C11.1842 12.4344 10.833 13.2823 10.833 14.1663C10.833 15.0504 11.1842 15.8982 11.8093 16.5234C12.4344 17.1485 13.2823 17.4997 14.1663 17.4997ZM14.1663 16.6663C14.8294 16.6663 15.4653 16.4029 15.9341 15.9341C16.4029 15.4653 16.6663 14.8294 16.6663 14.1663C16.6663 13.5033 16.4029 12.8674 15.9341 12.3986C15.4653 11.9297 14.8294 11.6663 14.1663 11.6663C13.5033 11.6663 12.8674 11.9297 12.3986 12.3986C11.9297 12.8674 11.6663 13.5033 11.6663 14.1663C11.6663 14.8294 11.9297 15.4653 12.3986 15.9341C12.8674 16.4029 13.5033 16.6663 14.1663 16.6663Z"
    fill="#FFCA19" />
</svg>
