<svg xmlns="http://www.w3.org/2000/svg" width="20" height="20" viewBox="0 0 20 20" fill="none">
  <path
    d="M7.40792 16.529C8.03867 16.8918 8.78749 16.9898 9.49037 16.8016C10.1932 16.6134 10.7929 16.1543 11.1579 15.5249L14.6413 9.49986C14.7399 9.32917 14.8038 9.14072 14.8296 8.94528C14.8553 8.74985 14.8422 8.55125 14.7912 8.36086C14.7401 8.17047 14.652 7.99202 14.5319 7.8357C14.4118 7.67939 14.2621 7.54827 14.0913 7.44986L13.0496 6.84986M7.27042 16.4499C6.69734 16.1179 6.27939 15.5722 6.10831 14.9324C5.93723 14.2926 6.027 13.611 6.35792 13.0374L8.99542 8.45403C9.19324 8.10968 9.24643 7.70093 9.14333 7.31742C9.04022 6.93391 8.78925 6.60694 8.44542 6.4082L6.52876 5.30403C6.35878 5.2048 6.17084 5.14019 5.97577 5.11393C5.78071 5.08766 5.58237 5.10026 5.3922 5.151C5.20202 5.20174 5.02377 5.28961 4.86772 5.40956C4.71166 5.5295 4.58088 5.67915 4.48292 5.84986L2.34542 9.5832C1.8861 10.3843 1.76281 11.3347 2.00254 12.2265C2.24227 13.1182 2.8255 13.8787 3.62459 14.3415L5.10792 15.1999L7.27042 16.4499Z"
    stroke="#FFCA19" stroke-linecap="round" stroke-linejoin="round" />
  <path
    d="M16.7495 5.75861C17.0624 5.93823 17.3367 6.17783 17.5568 6.46366C17.7769 6.7495 17.9384 7.07596 18.032 7.42433C18.1257 7.77269 18.1497 8.13613 18.1027 8.49379C18.0556 8.85145 17.9385 9.19631 17.7579 9.50861L15.2995 13.7503C15.1 14.0944 14.7723 14.3454 14.3881 14.4485C14.0039 14.5516 13.5945 14.4983 13.2495 14.3003L12.2079 13.6961M7.57038 5.91694L8.18704 4.85027C8.65149 4.04723 9.41574 3.46141 10.3119 3.22156C11.208 2.9817 12.1627 3.10743 12.9662 3.57111L14.4495 4.42944L16.612 5.67944C16.0379 5.34887 15.356 5.25973 14.7161 5.4316C14.0762 5.60348 13.5308 6.02232 13.1995 6.59611L9.58288 12.8336C9.38414 13.1774 9.05716 13.4284 8.67365 13.5315C8.29014 13.6346 7.8814 13.5814 7.53704 13.3836L6.49121 12.7794"
    stroke="#FFCA19" stroke-linecap="round" stroke-linejoin="round" />
</svg>
