<svg xmlns="http://www.w3.org/2000/svg" width="150" height="150" viewBox="0 0 150 150" fill="none">
  <path
    d="M132.319 96.2371L95.3688 34.6496C90.5188 26.5684 83.1 21.9434 75 21.9434C66.9 21.9434 59.4813 26.5684 54.6313 34.6371L17.6813 96.2371C12.7688 104.418 12.2313 113.143 16.2125 120.175C20.1875 127.212 27.95 131.25 37.5 131.25H112.5C122.05 131.25 129.813 127.212 133.788 120.181C137.769 113.15 137.231 104.425 132.319 96.2371ZM75 109.681C69.6625 109.681 65.3125 105.337 65.3125 99.9996C65.3125 94.6559 69.6563 90.3059 75 90.3059C80.3438 90.3059 84.6875 94.6559 84.6875 99.9996C84.6875 105.337 80.3375 109.681 75 109.681ZM85.2063 63.2809C85.1375 63.4746 76.45 84.9559 76.45 84.9559C76.2125 85.5434 75.6375 85.9309 75.0063 85.9309C74.375 85.9309 73.8 85.5434 73.5625 84.9559L64.8688 63.4684C64.3063 62.0121 64.0625 60.6996 64.0625 59.3746C64.0625 53.3434 68.9688 48.4371 75 48.4371C81.0313 48.4371 85.9375 53.3434 85.9375 59.3746C85.9375 60.6996 85.6938 62.0121 85.2063 63.2809Z"
    fill="#BF1515" />
</svg>
