<svg width="245" height="224" viewBox="0 0 245 224" fill="none" xmlns="http://www.w3.org/2000/svg">
<path d="M65.3333 74.6663V55.9997C65.3333 43.6229 70.25 31.7531 79.0017 23.0014C87.7534 14.2497 99.6232 9.33301 112 9.33301C124.377 9.33301 136.247 14.2497 144.998 23.0014C153.75 31.7531 158.667 43.6229 158.667 55.9997V74.6663H186.667C189.142 74.6663 191.516 75.6497 193.266 77.4C195.017 79.1503 196 81.5243 196 83.9997V196C196 198.475 195.017 200.849 193.266 202.599C191.516 204.35 189.142 205.333 186.667 205.333H37.3333C34.858 205.333 32.484 204.35 30.7337 202.599C28.9833 200.849 28 198.475 28 196V83.9997C28 81.5243 28.9833 79.1503 30.7337 77.4C32.484 75.6497 34.858 74.6663 37.3333 74.6663H65.3333ZM65.3333 93.333H46.6667V186.666H177.333V93.333H158.667V112H140V93.333H84V112H65.3333V93.333ZM84 74.6663H140V55.9997C140 48.5736 137.05 41.4517 131.799 36.2007C126.548 30.9497 119.426 27.9997 112 27.9997C104.574 27.9997 97.452 30.9497 92.201 36.2007C86.95 41.4517 84 48.5736 84 55.9997V74.6663Z" fill="#005DB5"/>
<path d="M133 104C133 73.0721 158.072 48 189 48C219.928 48 245 73.0721 245 104C245 134.928 219.928 160 189 160C158.072 160 133 134.928 133 104Z" fill="#FFCA19"/>
<path d="M213.372 132.3H201.072L188.972 112.5L176.272 132.3H164.272L183.072 103.8L165.972 78.3H178.472L189.172 95.2L200.072 78.3H211.872L195.072 103.8L213.372 132.3Z" fill="white"/>
</svg>
