<svg xmlns="http://www.w3.org/2000/svg" width="30" height="21" viewBox="0 0 30 21" fill="none">
  <g clip-path="url(#clip0_258_4429)">
    <path
      d="M29.4444 8.73158L24.8889 4.58684C24.7778 4.47632 24.6667 4.42105 24.5 4.42105H19.4444C19.2222 4.42105 19.0556 4.47632 18.8889 4.53158V1.65789C18.8889 0.718421 18.1667 0 17.2222 0H1.66667C0.722222 0 0 0.718421 0 1.65789V10.5C0 10.9421 0.166667 11.3289 0.444445 11.6053C0.166667 11.8816 0 12.2684 0 12.7105V16.0263C0 16.9658 0.722222 17.6842 1.66667 17.6842H3.33333C3.33333 19.5079 4.83333 21 6.66667 21C8.5 21 10 19.5079 10 17.6842H17.2222C17.6667 17.6842 18.0556 17.5184 18.3333 17.2421C18.6111 17.5184 19 17.6842 19.4444 17.6842H20C20 19.5079 21.5 21 23.3333 21C25.1667 21 26.6667 19.5079 26.6667 17.6842H28.3333C29.2778 17.6842 30 16.9658 30 16.0263V9.94737C30 9.50526 29.7778 9.06316 29.4444 8.73158ZM1.11111 1.65789C1.11111 1.32632 1.33333 1.10526 1.66667 1.10526H17.2222C17.5556 1.10526 17.7778 1.32632 17.7778 1.65789V6.07895V10.5C17.7778 10.8316 17.5556 11.0526 17.2222 11.0526H1.66667C1.33333 11.0526 1.11111 10.8316 1.11111 10.5V1.65789ZM6.66667 19.8947C5.44444 19.8947 4.44444 18.9 4.44444 17.6842C4.44444 16.4684 5.44444 15.4737 6.66667 15.4737C7.88889 15.4737 8.88889 16.4684 8.88889 17.6842C8.88889 18.9 7.88889 19.8947 6.66667 19.8947ZM17.2222 16.5789H9.77778C9.33333 15.3079 8.11111 14.3684 6.66667 14.3684C5.22222 14.3684 4 15.3079 3.55556 16.5789H1.66667C1.33333 16.5789 1.11111 16.3579 1.11111 16.0263V12.7105C1.11111 12.3789 1.33333 12.1579 1.66667 12.1579H17.2222C17.5556 12.1579 17.7778 12.3789 17.7778 12.7105V16.0263C17.7778 16.3579 17.5556 16.5789 17.2222 16.5789ZM23.3333 19.8947C22.1111 19.8947 21.1111 18.9 21.1111 17.6842C21.1111 16.4684 22.1111 15.4737 23.3333 15.4737C24.5556 15.4737 25.5556 16.4684 25.5556 17.6842C25.5556 18.9 24.5556 19.8947 23.3333 19.8947ZM28.8889 16.0263C28.8889 16.3579 28.6667 16.5789 28.3333 16.5789H26.5556C26.5 16.5789 26.5 16.5789 26.4444 16.5789C26 15.3079 24.7778 14.3684 23.2778 14.3684C21.8333 14.3684 20.6111 15.3079 20.1667 16.5789H19.4444C19.1111 16.5789 18.8889 16.3579 18.8889 16.0263V12.7105V10.5V6.07895C18.8889 5.74737 19.1111 5.52632 19.4444 5.52632H24.2778L28.7222 9.56053C28.8333 9.67105 28.8889 9.83684 28.8889 9.94737V16.0263Z"
      fill="#005DB5" />
  </g>
  <defs>
    <clipPath id="clip0_258_4429">
      <rect width="30" height="21" fill="white" />
    </clipPath>
  </defs>
</svg>
