<svg xmlns="http://www.w3.org/2000/svg" width="27" height="35" viewBox="0 0 27 35" fill="none">
  <path
    d="M1.64062 35H24.6094C25.5139 35 26.25 34.2639 26.25 33.3594V10.3906C26.25 10.372 26.2412 10.3567 26.2402 10.3392C26.2372 10.3152 26.2325 10.2915 26.2259 10.2681C26.2084 10.1923 26.1748 10.1211 26.1275 10.0592C26.1198 10.0494 26.1209 10.0373 26.1133 10.0275L17.3633 0.18375L17.3523 0.177188C17.2854 0.107667 17.2012 0.0571009 17.1084 0.030625C17.0888 0.0247917 17.0683 0.0207813 17.0472 0.0185938C17.0155 0.013125 16.9859 0 16.9531 0H1.64062C0.736094 0 0 0.736094 0 1.64062V33.3594C0 34.2639 0.736094 35 1.64062 35ZM17.5 1.98516L24.4858 9.84375H18.0469C17.8062 9.84375 17.5 9.38437 17.5 9.02344V1.98516ZM1.09375 1.64062C1.09375 1.49558 1.15137 1.35648 1.25393 1.25393C1.35648 1.15137 1.49558 1.09375 1.64062 1.09375H16.4062V9.02344C16.4062 9.90828 17.1227 10.9375 18.0469 10.9375H25.1562V33.3594C25.1562 33.5044 25.0986 33.6435 24.9961 33.7461C24.8935 33.8486 24.7544 33.9062 24.6094 33.9062H1.64062C1.33438 33.9062 1.09375 33.6656 1.09375 33.3594V1.64062Z"
    fill="white" />
  <path
    d="M6.01562 15.3125H20.2344C20.3794 15.3125 20.5185 15.2549 20.6211 15.1523C20.7236 15.0498 20.7812 14.9107 20.7812 14.7656C20.7812 14.6206 20.7236 14.4815 20.6211 14.3789C20.5185 14.2764 20.3794 14.2188 20.2344 14.2188H6.01562C5.87058 14.2188 5.73149 14.2764 5.62893 14.3789C5.52637 14.4815 5.46875 14.6206 5.46875 14.7656C5.46875 14.9107 5.52637 15.0498 5.62893 15.1523C5.73149 15.2549 5.87058 15.3125 6.01562 15.3125ZM6.01562 19.6875H20.2344C20.3794 19.6875 20.5185 19.6299 20.6211 19.5273C20.7236 19.4248 20.7812 19.2857 20.7812 19.1406C20.7812 18.9956 20.7236 18.8565 20.6211 18.7539C20.5185 18.6514 20.3794 18.5938 20.2344 18.5938H6.01562C5.87058 18.5938 5.73149 18.6514 5.62893 18.7539C5.52637 18.8565 5.46875 18.9956 5.46875 19.1406C5.46875 19.2857 5.52637 19.4248 5.62893 19.5273C5.73149 19.6299 5.87058 19.6875 6.01562 19.6875ZM6.01562 10.9375H12.5781C12.7232 10.9375 12.8623 10.8799 12.9648 10.7773C13.0674 10.6748 13.125 10.5357 13.125 10.3906C13.125 10.2456 13.0674 10.1065 12.9648 10.0039C12.8623 9.90137 12.7232 9.84375 12.5781 9.84375H6.01562C5.87058 9.84375 5.73149 9.90137 5.62893 10.0039C5.52637 10.1065 5.46875 10.2456 5.46875 10.3906C5.46875 10.5357 5.52637 10.6748 5.62893 10.7773C5.73149 10.8799 5.87058 10.9375 6.01562 10.9375ZM6.01562 24.0625H20.2344C20.3794 24.0625 20.5185 24.0049 20.6211 23.9023C20.7236 23.7998 20.7812 23.6607 20.7812 23.5156C20.7812 23.3706 20.7236 23.2315 20.6211 23.1289C20.5185 23.0264 20.3794 22.9688 20.2344 22.9688H6.01562C5.87058 22.9688 5.73149 23.0264 5.62893 23.1289C5.52637 23.2315 5.46875 23.3706 5.46875 23.5156C5.46875 23.6607 5.52637 23.7998 5.62893 23.9023C5.73149 24.0049 5.87058 24.0625 6.01562 24.0625ZM6.01562 28.4375H20.2344C20.3794 28.4375 20.5185 28.3799 20.6211 28.2773C20.7236 28.1748 20.7812 28.0357 20.7812 27.8906C20.7812 27.7456 20.7236 27.6065 20.6211 27.5039C20.5185 27.4014 20.3794 27.3438 20.2344 27.3438H6.01562C5.87058 27.3438 5.73149 27.4014 5.62893 27.5039C5.52637 27.6065 5.46875 27.7456 5.46875 27.8906C5.46875 28.0357 5.52637 28.1748 5.62893 28.2773C5.73149 28.3799 5.87058 28.4375 6.01562 28.4375Z"
    fill="white" />
</svg>
