<svg xmlns="http://www.w3.org/2000/svg" width="30" height="30" viewBox="0 0 50 50" fill="none">
  <path
    d="M38.9771 7.28133C35.0354 5.32091 30.2083 4.16675 25 4.16675C19.7917 4.16675 14.9667 5.32091 11.0229 7.28133C9.08958 8.24383 8.12292 8.72508 7.1875 10.2376C6.25208 11.7501 6.25 13.2126 6.25 16.1417V23.4126C6.25 35.2522 15.7125 41.8334 21.1938 44.6542C22.7229 45.4397 23.4854 45.8334 25 45.8334C26.5146 45.8334 27.2771 45.4397 28.8062 44.6542C34.2854 41.8334 43.75 35.2501 43.75 23.4105V16.1417C43.75 13.2126 43.75 11.7501 42.8125 10.2376C41.875 8.72508 40.9104 8.24383 38.9771 7.28133Z"
    stroke="#FFCA19" stroke-width="2" stroke-linecap="round" stroke-linejoin="round" />
  <path
    d="M20.8335 20.8334V17.7084C20.8335 16.6033 21.2725 15.5435 22.0539 14.7621C22.8353 13.9807 23.8951 13.5417 25.0002 13.5417C26.1052 13.5417 27.165 13.9807 27.9464 14.7621C28.7278 15.5435 29.1668 16.6033 29.1668 17.7084V20.8334M20.8335 20.8334H29.1668M20.8335 20.8334C20.0047 20.8334 19.2098 21.1627 18.6238 21.7487C18.0377 22.3348 17.7085 23.1296 17.7085 23.9584V27.0834C17.7085 27.9122 18.0377 28.7071 18.6238 29.2931C19.2098 29.8792 20.0047 30.2084 20.8335 30.2084H29.1668C29.9956 30.2084 30.7905 29.8792 31.3765 29.2931C31.9626 28.7071 32.2918 27.9122 32.2918 27.0834V23.9584C32.2918 23.1296 31.9626 22.3348 31.3765 21.7487C30.7905 21.1627 29.9956 20.8334 29.1668 20.8334"
    stroke="#FFCA19" stroke-width="2" stroke-linecap="round" stroke-linejoin="round" />
</svg>
